<?xml version="1.0" encoding="UTF-8" standalone="no" ?>
<!DOCTYPE svg PUBLIC "-//W3C//DTD SVG 1.1//EN" "http://www.w3.org/Graphics/SVG/1.1/DTD/svg11.dtd">
<svg xmlns="http://www.w3.org/2000/svg" xmlns:xlink="http://www.w3.org/1999/xlink" version="1.1" width="1080" height="1080" viewBox="0 0 1080 1080" xml:space="preserve">
<desc>Created with Fabric.js 5.2.4</desc>
<defs>
</defs>
<rect x="0" y="0" width="100%" height="100%" fill="transparent"></rect>
<g transform="matrix(1 0 0 1 540 540)" id="b1f1b4cc-b558-4b37-81e1-34ee2cd877d7"  >
</g>
<g transform="matrix(1 0 0 1 540 540)" id="41139f2c-5963-4a34-8349-35488571a239"  >
<rect style="stroke: none; stroke-width: 1; stroke-dasharray: none; stroke-linecap: butt; stroke-dashoffset: 0; stroke-linejoin: miter; stroke-miterlimit: 4; fill: rgb(255,255,255); fill-rule: nonzero; opacity: 1; visibility: hidden;" vector-effect="non-scaling-stroke"  x="-540" y="-540" rx="0" ry="0" width="1080" height="1080" />
</g>
<g transform="matrix(0 0 0 0 0 0)"  >
<g style=""   >
</g>
</g>
<g transform="matrix(0 0 0 0 0 0)"  >
<g style=""   >
</g>
</g>
<g transform="matrix(0 0 0 0 0 0)"  >
<g style=""   >
</g>
</g>
<g transform="matrix(0 0 0 0 0 0)"  >
<g style=""   >
</g>
</g>
<g transform="matrix(0 0 0 0 0 0)"  >
<g style=""   >
</g>
</g>
<g transform="matrix(0 0 0 0 0 0)"  >
<g style=""   >
</g>
</g>
<g transform="matrix(2.48 0 0 2.48 540 540)"  >
<path style="stroke: rgb(0,0,0); stroke-width: 0; stroke-dasharray: none; stroke-linecap: butt; stroke-dashoffset: 0; stroke-linejoin: miter; stroke-miterlimit: 4; fill: rgb(231,111,81); fill-rule: nonzero; opacity: 1;" vector-effect="non-scaling-stroke"  transform=" translate(-247.5, -232.5)" d="M 300 75 C 291.71875 75 285 81.71875 285 90 C 285 98.28125 291.71875 105 300 105 L 353.789062 105 L 229.394531 229.394531 C 223.535156 235.253906 223.535156 244.746094 229.394531 250.605469 C 232.328125 253.539062 236.160156 255 240 255 C 243.839844 255 247.671875 253.539062 250.605469 250.605469 L 375 126.210938 L 375 180 C 375 188.28125 381.71875 195 390 195 C 398.28125 195 405 188.28125 405 180 L 405 90 C 405 81.71875 398.28125 75 390 75 Z M 135 90 C 110.183594 90 90 110.183594 90 135 L 90 345 C 90 369.816406 110.183594 390 135 390 L 345 390 C 369.816406 390 390 369.816406 390 345 L 390 255 C 390 246.71875 383.28125 240 375 240 C 366.71875 240 360 246.71875 360 255 L 360 345 C 360 353.273438 353.273438 360 345 360 L 135 360 C 126.726562 360 120 353.273438 120 345 L 120 135 C 120 126.726562 126.726562 120 135 120 L 225 120 C 233.28125 120 240 113.28125 240 105 C 240 96.71875 233.28125 90 225 90 Z M 135 90" stroke-linecap="round" />
</g>
<g transform="matrix(NaN NaN NaN NaN 0 0)"  >
<g style=""   >
</g>
</g>
<g transform="matrix(NaN NaN NaN NaN 0 0)"  >
<g style=""   >
</g>
</g>
</svg>